<svg version="1.1" viewBox="0.0 0.0 960.0 540.0" fill="none" stroke="none" stroke-linecap="square" stroke-miterlimit="10" xmlns:xlink="http://www.w3.org/1999/xlink" xmlns="http://www.w3.org/2000/svg"><clipPath id="p.0"><path d="m0 0l960.0 0l0 540.0l-960.0 0l0 -540.0z" clip-rule="nonzero"/></clipPath><g clip-path="url(#p.0)"><path fill="#ffffff" d="m0 0l960.0 0l0 540.0l-960.0 0z" fill-rule="evenodd"/><path fill="#ffffff" d="m265.16272 213.83989l49.385834 0l0 58.173233l-49.385834 0z" fill-rule="evenodd"/><path fill="#000000" d="m283.5666 241.36838l4.8125 -1.40625q0.578125 0.71875 0.8125 1.359375q0.421875 1.109375 0.59375 3.0625q0.328125 3.84375 0.453125 8.203125q1.671875 -2.203125 3.828125 -5.828125q0.65625 -1.09375 0.65625 -2.0625q0 -0.609375 -0.765625 -1.15625q-0.75 -0.546875 -0.9375 -0.84375q-0.1875 -0.3125 -0.1875 -0.796875q0 -0.78125 0.5625 -1.359375q0.578125 -0.578125 1.390625 -0.578125q0.859375 0 1.484375 0.65625q0.640625 0.65625 0.640625 1.546875q0 1.046875 -0.59375 2.4375q-0.578125 1.375 -2.734375 4.734375q-2.765625 4.296875 -5.421875 7.4375q-1.703125 2.0 -2.75 2.875q-1.046875 0.890625 -2.171875 1.40625q-0.671875 0.296875 -1.328125 0.296875q-0.890625 0 -1.515625 -0.625q-0.640625 -0.625 -0.640625 -1.484375q0 -0.859375 0.578125 -1.453125q0.5625 -0.59375 1.328125 -0.59375q0.953125 0 1.75 1.0q0.53125 0.671875 0.875 0.671875q0.359375 0 0.703125 -0.203125q0.46875 -0.25 1.3125 -1.15625q0.09375 -1.953125 0.09375 -2.953125q0 -1.34375 -0.125 -3.78125l-0.265625 -5.953125q-0.140625 -1.640625 -0.703125 -2.359375q-0.4375 -0.53125 -1.140625 -0.53125q-0.265625 0 -0.59375 0.046875l0 -0.609375z" fill-rule="nonzero"/><path fill="#a4c2f4" d="m154.04462 273.52493l222.23624 0l0 59.055115l-222.23624 0z" fill-rule="evenodd"/><path fill="#000000" d="m220.31117 315.0569l1.4375 -18.125q0.0625 -0.796875 0.0625 -1.3125q0 -0.828125 -0.390625 -1.21875q-0.375 -0.390625 -1.34375 -0.4375l0.234375 -0.578125l8.5625 0l-0.171875 0.578125l-0.421875 0q-0.84375 0 -1.375 0.5625q-0.515625 0.546875 -0.625 2.0625l-0.828125 10.75l6.390625 -8.734375l0.15625 -2.015625q0.0625 -0.625 0.0625 -1.0q0 -0.765625 -0.421875 -1.171875q-0.40625 -0.40625 -1.359375 -0.453125l0.15625 -0.578125l8.625 0l-0.171875 0.578125q-1.140625 0 -1.6875 0.5625q-0.546875 0.546875 -0.671875 2.0625l-0.8125 10.75l6.15625 -8.46875q1.578125 -2.171875 1.953125 -2.953125q0.265625 -0.53125 0.265625 -0.90625q0 -0.359375 -0.359375 -0.640625q-0.34375 -0.296875 -1.34375 -0.40625l0.15625 -0.578125l5.65625 0l-0.140625 0.578125q-0.765625 0.140625 -1.265625 0.53125q-0.703125 0.546875 -1.828125 2.09375l-13.453125 18.46875l-0.921875 0l1.078125 -14.296875l-10.421875 14.296875l-0.9375 0zm25.734375 -14.03125l5.453125 -0.9375q1.484375 2.328125 2.09375 5.125q1.53125 -2.265625 2.3125 -3.171875q1.0468597 -1.21875 1.7187347 -1.578125q0.6875 -0.375 1.453125 -0.375q0.859375 0 1.3125 0.46875q0.46875 0.46875 0.46875 1.265625q0 0.75 -0.46875 1.234375q-0.453125 0.46875 -1.140625 0.46875q-0.5 0 -1.15625 -0.171875q-0.640625 -0.1875 -0.890625 -0.1875q-0.65625 0 -1.2499847 0.46875q-0.8125 0.640625 -2.0 2.734375q1.328125 4.6875 2.1249847 5.71875q0.46875 0.609375 0.953125 0.609375q0.40625 0 0.703125 -0.203125q0.453125 -0.328125 1.390625 -1.640625l0.5625 0.328125q-1.375 2.21875 -2.6875 3.125q-0.99998474 0.703125 -1.9687347 0.703125q-1.0 0 -1.671875 -0.4375q-0.65625 -0.453125 -1.171875 -1.453125q-0.515625 -1.015625 -1.21875 -3.234375q-1.828125 2.328125 -2.875 3.40625q-1.03125 1.0625 -1.71875 1.390625q-0.6875 0.328125 -1.46875 0.328125q-0.8125 0 -1.28125 -0.46875q-0.484375 -0.46875 -0.484375 -1.21875q0 -0.796875 0.515625 -1.3125q0.515625 -0.515625 1.3125 -0.515625q0.421875 0 0.953125 0.25q0.78125 0.375 1.125 0.375q0.453125 0 0.8125 -0.1875q0.46875 -0.234375 1.1875 -1.015625q0.4375 -0.484375 1.609375 -2.0625q-1.5 -5.5625 -2.34375 -6.65625q-0.53125 -0.703125 -1.34375 -0.703125q-0.421875 0 -1.03125 0.125l0.109375 -0.59375z" fill-rule="nonzero"/><path fill="#000000" d="m279.32678 312.3694l0 -7.796875l-7.765625 0l0 -1.28125l7.765625 0l0 -7.765625l1.28125 0l0 7.765625l7.796875 0l0 1.28125l-7.796875 0l0 7.796875l-1.28125 0zm28.09375 -20.015625l-3.078125 10.796875q1.5 -1.5625 2.609375 -2.140625q1.125 -0.578125 2.34375 -0.578125q1.71875 0 2.8125 1.140625q1.09375 1.140625 1.09375 3.09375q0 2.515625 -1.4375 5.015625q-1.4375 2.484375 -3.609375 3.875q-2.171875 1.390625 -4.28125 1.390625q-2.359375 0 -4.84375 -1.765625l4.75 -16.359375q0.546875 -1.890625 0.546875 -2.21875q0 -0.40625 -0.25 -0.609375q-0.359375 -0.28125 -1.0625 -0.28125q-0.328125 0 -1.0 0.109375l0 -0.59375l5.40625 -0.875zm-6.046875 21.0q1.5625 0.859375 2.75 0.859375q1.375 0 2.84375 -1.0q1.484375 -1.015625 2.5625 -3.40625q1.09375 -2.390625 1.09375 -4.828125q0 -1.4375 -0.71875 -2.25q-0.703125 -0.8125 -1.671875 -0.8125q-1.453125 0 -2.84375 1.171875q-1.390625 1.15625 -1.984375 3.234375l-2.03125 7.03125z" fill-rule="nonzero"/><path fill="#000000" fill-opacity="0.0" d="m265.16272 273.52493l0 -61.196854" fill-rule="evenodd"/><path stroke="#595959" stroke-width="3.0" stroke-linejoin="round" stroke-linecap="butt" d="m265.16272 273.52493l0 -43.196854" fill-rule="evenodd"/><path fill="#595959" stroke="#595959" stroke-width="3.0" stroke-linecap="butt" d="m270.11792 230.32808l-4.9552 -13.614288l-4.9552 13.614288z" fill-rule="evenodd"/><path fill="#ffffff" d="m265.16272 334.09186l49.385834 0l0 58.17325l-49.385834 0z" fill-rule="evenodd"/><path fill="#000000" d="m283.30878 361.1516l5.453125 -0.9375q1.484375 2.328125 2.09375 5.125q1.53125 -2.265625 2.3125 -3.171875q1.046875 -1.21875 1.71875 -1.578125q0.6875 -0.375 1.453125 -0.375q0.859375 0 1.3125 0.46875q0.46875 0.46875 0.46875 1.265625q0 0.75 -0.46875 1.234375q-0.453125 0.46875 -1.140625 0.46875q-0.5 0 -1.15625 -0.171875q-0.640625 -0.1875 -0.890625 -0.1875q-0.65625 0 -1.25 0.46875q-0.8125 0.640625 -2.0 2.734375q1.328125 4.6875 2.125 5.71875q0.46875 0.609375 0.953125 0.609375q0.40625 0 0.703125 -0.203125q0.453125 -0.328125 1.390625 -1.640625l0.5625 0.328125q-1.375 2.21875 -2.6875 3.125q-1.0 0.703125 -1.96875 0.703125q-1.0 0 -1.671875 -0.4375q-0.65625 -0.453125 -1.171875 -1.453125q-0.515625 -1.015625 -1.21875 -3.234375q-1.828125 2.328125 -2.875 3.40625q-1.03125 1.0625 -1.71875 1.390625q-0.6875 0.328125 -1.46875 0.328125q-0.8125 0 -1.28125 -0.46875q-0.484375 -0.46875 -0.484375 -1.21875q0 -0.796875 0.515625 -1.3125q0.515625 -0.515625 1.3125 -0.515625q0.421875 0 0.953125 0.25q0.78125 0.375 1.125 0.375q0.453125 0 0.8125 -0.1875q0.46875 -0.234375 1.1875 -1.015625q0.4375 -0.484375 1.609375 -2.0625q-1.5 -5.5625 -2.34375 -6.65625q-0.53125 -0.703125 -1.34375 -0.703125q-0.421875 0 -1.03125 0.125l0.109375 -0.59375z" fill-rule="nonzero"/><path fill="#000000" fill-opacity="0.0" d="m265.16272 393.77692l0 -61.19687" fill-rule="evenodd"/><path stroke="#595959" stroke-width="3.0" stroke-linejoin="round" stroke-linecap="butt" d="m265.16272 393.77692l0 -43.19687" fill-rule="evenodd"/><path fill="#595959" stroke="#595959" stroke-width="3.0" stroke-linecap="butt" d="m270.11792 350.58005l-4.9552 -13.614288l-4.9552 13.614288z" fill-rule="evenodd"/><path fill="#ffffff" d="m154.04462 153.27296l222.23624 0l0 59.055115l-222.23624 0z" fill-rule="evenodd"/><path fill="#000000" d="m253.17836 194.32053l-15.703125 0l0.21875 -0.578125q1.25 -0.03125 1.671875 -0.203125q0.65625 -0.28125 0.96875 -0.734375q0.484375 -0.71875 1.03125 -2.59375l3.734375 -12.890625q0.46875 -1.59375 0.46875 -2.34375q0 -0.59375 -0.4375 -0.921875q-0.421875 -0.328125 -1.609375 -0.328125q-0.265625 0 -0.421875 -0.015625l0.1875 -0.578125l8.640625 0l-0.125 0.578125q-1.453125 0 -2.0625 0.28125q-0.609375 0.28125 -1.015625 0.921875q-0.28125 0.421875 -0.921875 2.625l-3.671875 12.671875q-0.421875 1.4375 -0.421875 2.0q0 0.375 0.421875 0.71875q0.265625 0.234375 1.203125 0.234375l2.046875 0q2.234375 0 3.546875 -0.5625q0.96875 -0.421875 1.78125 -1.265625q0.4375 -0.46875 1.546875 -2.328125l0.40625 -0.703125l0.578125 0l-2.0625 6.015625zm9.14061 6.59375l-0.53125 0.25q-1.859375 -3.546875 -2.671875 -6.265625q-0.625 -2.125 -0.625 -4.28125q0 -5.03125 2.328125 -9.015625q2.859375 -4.875 9.265625 -9.5l0.375 0.546875q-2.890625 2.140625 -4.71875 4.796875q-2.28125 3.3125 -3.734375 8.0q-1.453125 4.6875 -1.453125 8.53125q0 2.9375 1.765625 6.9375z" fill-rule="nonzero"/><path fill="#000000" d="m267.7721 181.2424l4.8125 -1.40625q0.578125 0.71875 0.8125 1.359375q0.421875 1.109375 0.59375 3.0625q0.328125 3.84375 0.453125 8.203125q1.671875 -2.203125 3.828125 -5.828125q0.65625 -1.09375 0.65625 -2.0625q0 -0.609375 -0.765625 -1.15625q-0.75 -0.546875 -0.9375 -0.84375q-0.1875 -0.3125 -0.1875 -0.796875q0 -0.78125 0.5625 -1.359375q0.578125 -0.578125 1.390625 -0.578125q0.859375 0 1.484375 0.65625q0.640625 0.65625 0.640625 1.546875q0 1.046875 -0.59375 2.4375q-0.578125 1.375 -2.734375 4.734375q-2.765625 4.296875 -5.421875 7.4375q-1.703125 2.0 -2.75 2.875q-1.046875 0.890625 -2.171875 1.40625q-0.671875 0.296875 -1.328125 0.296875q-0.890625 0 -1.515625 -0.625q-0.640625 -0.625 -0.640625 -1.484375q0 -0.859375 0.578125 -1.453125q0.5625 -0.59375 1.328125 -0.59375q0.953125 0 1.75 1.0q0.53125 0.671875 0.875 0.671875q0.359375 0 0.703125 -0.203125q0.46875 -0.25 1.3125 -1.15625q0.09375 -1.953125 0.09375 -2.953125q0 -1.34375 -0.125 -3.78125l-0.265625 -5.953125q-0.140625 -1.640625 -0.703125 -2.359375q-0.4375 -0.53125 -1.140625 -0.53125q-0.265625 0 -0.59375 0.046875l0 -0.609375z" fill-rule="nonzero"/><path fill="#000000" d="m285.81897 172.39865l0.53125 -0.296875q1.859375 3.53125 2.65625 6.25q0.640625 2.125 0.640625 4.28125q0 5.046875 -2.328125 9.015625q-2.875 4.890625 -9.265625 9.515625l-0.375 -0.484375q2.890625 -2.15625 4.71875 -4.796875q2.28125 -3.3125 3.734375 -8.0q1.453125 -4.703125 1.453125 -8.546875q0 -2.9375 -1.765625 -6.9375z" fill-rule="nonzero"/><path fill="#ffffff" d="m688.1391 335.60367l49.385864 0l0 58.17325l-49.385864 0z" fill-rule="evenodd"/><path fill="#000000" d="m706.28516 362.66342l5.453125 -0.9375q1.484375 2.328125 2.09375 5.125q1.53125 -2.265625 2.3125 -3.171875q1.046875 -1.21875 1.71875 -1.578125q0.6875 -0.375 1.453125 -0.375q0.859375 0 1.3125 0.46875q0.46875 0.46875 0.46875 1.265625q0 0.75 -0.46875 1.234375q-0.453125 0.46875 -1.140625 0.46875q-0.5 0 -1.15625 -0.171875q-0.640625 -0.1875 -0.890625 -0.1875q-0.65625 0 -1.25 0.46875q-0.8125 0.640625 -2.0 2.734375q1.328125 4.6875 2.125 5.71875q0.46875 0.609375 0.953125 0.609375q0.40625 0 0.703125 -0.203125q0.453125 -0.328125 1.390625 -1.640625l0.5625 0.328125q-1.375 2.21875 -2.6875 3.125q-1.0 0.703125 -1.96875 0.703125q-1.0 0 -1.671875 -0.4375q-0.65625 -0.453125 -1.171875 -1.453125q-0.515625 -1.015625 -1.21875 -3.234375q-1.828125 2.328125 -2.875 3.40625q-1.03125 1.0625 -1.71875 1.390625q-0.6875 0.328125 -1.46875 0.328125q-0.8125 0 -1.28125 -0.46875q-0.484375 -0.46875 -0.484375 -1.21875q0 -0.796875 0.515625 -1.3125q0.515625 -0.515625 1.3125 -0.515625q0.421875 0 0.953125 0.25q0.78125 0.375 1.125 0.375q0.453125 0 0.8125 -0.1875q0.46875 -0.234375 1.1875 -1.015625q0.4375 -0.484375 1.609375 -2.0625q-1.5 -5.5625 -2.34375 -6.65625q-0.53125 -0.703125 -1.34375 -0.703125q-0.421875 0 -1.03125 0.125l0.109375 -0.59375zm12.84375 -4.921875l-1.59375 0l-2.09375 -3.171875l-4.59375 3.171875l-1.640625 0l4.78125 -5.3125l3.546875 0l1.59375 5.3125z" fill-rule="nonzero"/><path fill="#ffffff" d="m688.1391 95.09974l49.385864 0l0 58.173225l-49.385864 0z" fill-rule="evenodd"/><path fill="#000000" d="m706.54297 122.62823l4.8125 -1.40625q0.578125 0.71875 0.8125 1.359375q0.421875 1.109375 0.59375 3.0625q0.328125 3.8437424 0.453125 8.203117q1.671875 -2.203125 3.828125 -5.828125q0.65625 -1.0937424 0.65625 -2.0624924q0 -0.609375 -0.765625 -1.15625q-0.75 -0.546875 -0.9375 -0.84375q-0.1875 -0.3125 -0.1875 -0.796875q0 -0.78125 0.5625 -1.359375q0.578125 -0.578125 1.390625 -0.578125q0.859375 0 1.484375 0.65625q0.640625 0.65625 0.640625 1.546875q0 1.046875 -0.59375 2.4375q-0.578125 1.375 -2.734375 4.7343674q-2.765625 4.296875 -5.421875 7.4375q-1.703125 2.0 -2.75 2.875q-1.046875 0.890625 -2.171875 1.40625q-0.671875 0.296875 -1.328125 0.296875q-0.890625 0 -1.515625 -0.625q-0.640625 -0.625 -0.640625 -1.484375q0 -0.859375 0.578125 -1.453125q0.5625 -0.59375 1.328125 -0.59375q0.953125 0 1.75 1.0q0.53125 0.671875 0.875 0.671875q0.359375 0 0.703125 -0.203125q0.46875 -0.25 1.3125 -1.15625q0.09375 -1.953125 0.09375 -2.953125q0 -1.34375 -0.125 -3.78125l-0.265625 -5.9531174q-0.140625 -1.640625 -0.703125 -2.359375q-0.4375 -0.53125 -1.140625 -0.53125q-0.265625 0 -0.59375 0.046875l0 -0.609375z" fill-rule="nonzero"/><path fill="#c9daf8" d="m577.021 154.78477l222.2362 0l0 59.055115l-222.2362 0z" fill-rule="evenodd"/><path fill="#000000" d="m649.2641 186.00421l-0.5625 -0.171875q0.15625 -1.78125 0.859375 -2.953125q0.71875 -1.1875 1.84375 -1.1875q0.96875 0 1.6875 0.921875q0.734375 0.921875 0.84375 3.453125q0.109375 2.53125 0.109375 5.484375q0 0.71875 -0.078125 2.203125q3.921875 -4.671875 3.921875 -7.203125q0 -0.53125 -0.265625 -1.5q-0.25 -0.96875 -0.25 -1.703125q0 -0.8125 0.453125 -1.234375q0.46875 -0.421875 1.109375 -0.421875q1.34375 0 1.34375 1.953125q0 1.953125 -1.28125 4.4375q-1.265625 2.46875 -4.9375 6.59375q-1.734375 8.0625 -3.640625 8.0625q-0.875 0 -0.875 -1.234375q0 -1.75 3.578125 -6.78125q0.09375 -1.8125 0.09375 -2.65625q0 -1.625 -0.234375 -4.265625q-0.21875 -2.640625 -0.6875 -3.328125q-0.46875 -0.6875 -1.078125 -0.6875q-1.296875 0 -1.953125 2.21875z" fill-rule="nonzero"/><path fill="#000000" d="m661.35785 182.75421l4.8125 -1.40625q0.578125 0.71875 0.8125 1.359375q0.421875 1.109375 0.59375 3.0625q0.328125 3.84375 0.453125 8.203125q1.671875 -2.203125 3.828125 -5.828125q0.65625 -1.09375 0.65625 -2.0625q0 -0.609375 -0.765625 -1.15625q-0.75 -0.546875 -0.9375 -0.84375q-0.1875 -0.3125 -0.1875 -0.796875q0 -0.78125 0.5625 -1.359375q0.578125 -0.578125 1.390625 -0.578125q0.859375 0 1.484375 0.65625q0.640625 0.65625 0.640625 1.546875q0 1.046875 -0.59375 2.4375q-0.578125 1.375 -2.734375 4.734375q-2.765625 4.296875 -5.421875 7.4375q-1.703125 2.0 -2.75 2.875q-1.046875 0.890625 -2.171875 1.40625q-0.671875 0.296875 -1.328125 0.296875q-0.890625 0 -1.515625 -0.625q-0.640625 -0.625 -0.640625 -1.484375q0 -0.859375 0.578125 -1.453125q0.5625 -0.59375 1.328125 -0.59375q0.953125 0 1.75 1.0q0.53125 0.671875 0.875 0.671875q0.359375 0 0.703125 -0.203125q0.46875 -0.25 1.3125 -1.15625q0.09375 -1.953125 0.09375 -2.953125q0 -1.34375 -0.125 -3.78125l-0.265625 -5.953125q-0.140625 -1.640625 -0.703125 -2.359375q-0.4375 -0.53125 -1.140625 -0.53125q-0.265625 0 -0.59375 0.046875l0 -0.609375zm7.859375 -8.59375l3.546875 0l1.59375 5.3125l-1.59375 0l-2.09375 -3.171875l-4.59375 3.171875l-1.640625 0l4.78125 -5.3125z" fill-rule="nonzero"/><path fill="#000000" d="m693.48285 193.62921l0 -7.796875l-7.765625 0l0 -1.28125l7.765625 0l0 -7.765625l1.28125 0l0 7.765625l7.796875 0l0 1.28125l-7.796875 0l0 7.796875l-1.28125 0zm27.0625 -10.75q2.5625 0 4.015625 -1.828125q1.46875 -1.84375 1.46875 -4.046875q0 -1.109375 -0.6875 -1.84375q-0.6875 -0.734375 -1.65625 -0.734375q-0.921875 0 -1.65625 0.53125q-0.734375 0.515625 -1.4375 1.875q-0.453125 0.90625 -1.34375 3.96875l-2.984375 10.3125l-1.9375 5.953125q-0.5 1.546875 -0.90625 2.28125q-0.5625 0.984375 -1.375 1.8125q-0.8125 0.84375 -1.59375 1.203125q-0.796875 0.375 -1.5 0.375q-0.75 0 -1.34375 -0.53125q-0.40625 -0.359375 -0.40625 -1.0q0 -0.5 0.328125 -0.828125q0.328125 -0.328125 0.796875 -0.328125q0.359375 0 0.609375 0.234375q0.25 0.25 0.25 0.546875q0 0.21875 -0.203125 0.578125q-0.15625 0.25 -0.15625 0.375q0 0.125 0.09375 0.1875q0.125 0.109375 0.375 0.109375q0.609375 0 1.1875 -0.59375q0.796875 -0.828125 1.65625 -3.765625l2.265625 -8.34375l2.21875 -7.6875q1.0625 -3.6875 1.875 -5.03125q0.8125 -1.359375 2.1875 -2.203125q1.375 -0.84375 3.0625 -0.84375q2.0625 0 3.296875 1.203125q1.234375 1.1875 1.234375 3.0q0 1.546875 -0.828125 2.734375q-0.828125 1.1875 -2.296875 1.9375q-1.03125 0.515625 -2.90625 0.84375q1.609375 0.421875 2.4375 1.015625q0.828125 0.59375 1.34375 1.65625q0.53125 1.046875 0.53125 2.25q0 1.984375 -0.984375 3.84375q-0.984375 1.84375 -2.578125 2.984375q-1.59375 1.125 -2.890625 1.125q-1.09375 0 -1.8125 -0.75q-0.703125 -0.75 -0.703125 -2.0q0 -0.875 0.359375 -1.296875q0.375 -0.421875 0.921875 -0.421875q0.453125 0 0.75 0.3125q0.3125 0.296875 0.3125 0.75q0 0.484375 -0.359375 1.21875q-0.265625 0.53125 -0.265625 0.765625q0 0.3125 0.21875 0.53125q0.234375 0.203125 0.5625 0.203125q0.578125 0 1.03125 -0.40625q1.140625 -1.0 1.84375 -2.890625q0.921875 -2.421875 0.921875 -4.59375q0 -1.796875 -1.15625 -2.984375q-0.828125 -0.875 -2.359375 -1.109375l0.171875 -0.65625z" fill-rule="nonzero"/><path fill="#000000" fill-opacity="0.0" d="m688.1391 154.78477l0 -61.196846" fill-rule="evenodd"/><path stroke="#595959" stroke-width="3.0" stroke-linejoin="round" stroke-linecap="butt" d="m688.1391 154.78477l0 -43.196846" fill-rule="evenodd"/><path fill="#595959" stroke="#595959" stroke-width="3.0" stroke-linecap="butt" d="m693.0943 111.58793l-4.9552 -13.614296l-4.9552 13.614296z" fill-rule="evenodd"/><path fill="#ffffff" d="m688.1391 215.3517l49.385864 0l0 58.173233l-49.385864 0z" fill-rule="evenodd"/><path fill="#000000" d="m706.54297 242.88019l4.8125 -1.40625q0.578125 0.71875 0.8125 1.359375q0.421875 1.109375 0.59375 3.0625q0.328125 3.84375 0.453125 8.203125q1.671875 -2.203125 3.828125 -5.828125q0.65625 -1.09375 0.65625 -2.0625q0 -0.609375 -0.765625 -1.15625q-0.75 -0.546875 -0.9375 -0.84375q-0.1875 -0.3125 -0.1875 -0.796875q0 -0.78125 0.5625 -1.359375q0.578125 -0.578125 1.390625 -0.578125q0.859375 0 1.484375 0.65625q0.640625 0.65625 0.640625 1.546875q0 1.046875 -0.59375 2.4375q-0.578125 1.375 -2.734375 4.734375q-2.765625 4.296875 -5.421875 7.4375q-1.703125 2.0 -2.75 2.875q-1.046875 0.890625 -2.171875 1.40625q-0.671875 0.296875 -1.328125 0.296875q-0.890625 0 -1.515625 -0.625q-0.640625 -0.625 -0.640625 -1.484375q0 -0.859375 0.578125 -1.453125q0.5625 -0.59375 1.328125 -0.59375q0.953125 0 1.75 1.0q0.53125 0.671875 0.875 0.671875q0.359375 0 0.703125 -0.203125q0.46875 -0.25 1.3125 -1.15625q0.09375 -1.953125 0.09375 -2.953125q0 -1.34375 -0.125 -3.78125l-0.265625 -5.953125q-0.140625 -1.640625 -0.703125 -2.359375q-0.4375 -0.53125 -1.140625 -0.53125q-0.265625 0 -0.59375 0.046875l0 -0.609375zm7.859375 -8.59375l3.546875 0l1.59375 5.3125l-1.59375 0l-2.09375 -3.171875l-4.59375 3.171875l-1.640625 0l4.78125 -5.3125z" fill-rule="nonzero"/><path fill="#000000" fill-opacity="0.0" d="m688.1391 275.03674l0 -61.196854" fill-rule="evenodd"/><path stroke="#595959" stroke-width="3.0" stroke-linejoin="round" stroke-linecap="butt" d="m688.1391 275.03674l0 -43.196854" fill-rule="evenodd"/><path fill="#595959" stroke="#595959" stroke-width="3.0" stroke-linecap="butt" d="m693.0943 231.83989l-4.9552 -13.614288l-4.9552 13.614288z" fill-rule="evenodd"/><path fill="#ffffff" d="m577.021 34.53281l222.2362 0l0 59.05512l-222.2362 0z" fill-rule="evenodd"/><path fill="#000000" d="m676.1547 75.58037l-15.703125 0l0.21875 -0.578125q1.25 -0.03125 1.671875 -0.203125q0.65625 -0.28125 0.96875 -0.734375q0.484375 -0.71875 1.03125 -2.59375l3.734375 -12.890621q0.46875 -1.59375 0.46875 -2.34375q0 -0.59375 -0.4375 -0.921875q-0.421875 -0.328125 -1.609375 -0.328125q-0.265625 0 -0.421875 -0.015625l0.1875 -0.578125l8.640625 0l-0.125 0.578125q-1.453125 0 -2.0625 0.28125q-0.609375 0.28125 -1.015625 0.921875q-0.28125 0.421875 -0.921875 2.625l-3.671875 12.671871q-0.421875 1.4375 -0.421875 2.0q0 0.375 0.421875 0.71875q0.265625 0.234375 1.203125 0.234375l2.046875 0q2.234375 0 3.546875 -0.5625q0.96875 -0.421875 1.78125 -1.265625q0.4375 -0.46875 1.546875 -2.328125l0.40625 -0.703125l0.578125 0l-2.0625 6.015625zm9.140625 6.59375l-0.53125 0.25q-1.859375 -3.546875 -2.671875 -6.265625q-0.625 -2.125 -0.625 -4.28125q0 -5.03125 2.328125 -9.015621q2.859375 -4.875 9.265625 -9.5l0.375 0.546875q-2.890625 2.140625 -4.71875 4.796875q-2.28125 3.3125 -3.734375 7.999996q-1.453125 4.6875 -1.453125 8.53125q0 2.9375 1.765625 6.9375z" fill-rule="nonzero"/><path fill="#000000" d="m690.7485 62.502247l4.8125 -1.40625q0.578125 0.71875 0.8125 1.359375q0.421875 1.109375 0.59375 3.0624962q0.328125 3.84375 0.453125 8.203125q1.671875 -2.203125 3.828125 -5.828125q0.65625 -1.09375 0.65625 -2.0625q0 -0.609375 -0.765625 -1.15625q-0.75 -0.546875 -0.9375 -0.8437462q-0.1875 -0.3125 -0.1875 -0.796875q0 -0.78125 0.5625 -1.359375q0.578125 -0.578125 1.390625 -0.578125q0.859375 0 1.484375 0.65625q0.640625 0.65625 0.640625 1.546875q0 1.0468712 -0.59375 2.4374962q-0.578125 1.375 -2.734375 4.734375q-2.765625 4.296875 -5.421875 7.4375q-1.703125 2.0 -2.75 2.875q-1.046875 0.890625 -2.171875 1.40625q-0.671875 0.296875 -1.328125 0.296875q-0.890625 0 -1.515625 -0.625q-0.640625 -0.625 -0.640625 -1.484375q0 -0.859375 0.578125 -1.453125q0.5625 -0.59375 1.328125 -0.59375q0.953125 0 1.75 1.0q0.53125 0.671875 0.875 0.671875q0.359375 0 0.703125 -0.203125q0.46875 -0.25 1.3125 -1.15625q0.09375 -1.953125 0.09375 -2.953125q0 -1.34375 -0.125 -3.78125l-0.265625 -5.953125q-0.140625 -1.640625 -0.703125 -2.3593712q-0.4375 -0.53125 -1.140625 -0.53125q-0.265625 0 -0.59375 0.046875l0 -0.609375z" fill-rule="nonzero"/><path fill="#000000" d="m708.79535 53.658497l0.53125 -0.296875q1.859375 3.53125 2.65625 6.25q0.640625 2.125 0.640625 4.28125q0 5.046871 -2.328125 9.015621q-2.875 4.890625 -9.265625 9.515625l-0.375 -0.484375q2.890625 -2.15625 4.71875 -4.796875q2.28125 -3.3125 3.734375 -8.0q1.453125 -4.703125 1.453125 -8.546871q0 -2.9375 -1.765625 -6.9375z" fill-rule="nonzero"/><path fill="#c9daf8" d="m577.021 395.28873l222.2362 0l0 59.055115l-222.2362 0z" fill-rule="evenodd"/><path fill="#000000" d="m633.80316 442.93002l-0.53125 0.25q-1.859375 -3.546875 -2.671875 -6.265625q-0.625 -2.125 -0.625 -4.28125q0 -5.03125 2.328125 -9.015625q2.859375 -4.875 9.265625 -9.5l0.375 0.546875q-2.890625 2.140625 -4.71875 4.796875q-2.28125 3.3125 -3.734375 8.0q-1.453125 4.6875 -1.453125 8.53125q0 2.9375 1.765625 6.9375z" fill-rule="nonzero"/><path fill="#000000" d="m639.8969 422.7894l5.453125 -0.9375q1.484375 2.328125 2.09375 5.125q1.53125 -2.265625 2.3125 -3.171875q1.046875 -1.21875 1.71875 -1.578125q0.6875 -0.375 1.453125 -0.375q0.859375 0 1.3125 0.46875q0.46875 0.46875 0.46875 1.265625q0 0.75 -0.46875 1.234375q-0.453125 0.46875 -1.140625 0.46875q-0.5 0 -1.15625 -0.171875q-0.640625 -0.1875 -0.890625 -0.1875q-0.65625 0 -1.25 0.46875q-0.8125 0.640625 -2.0 2.734375q1.328125 4.6875 2.125 5.71875q0.46875 0.609375 0.953125 0.609375q0.40625 0 0.703125 -0.203125q0.453125 -0.328125 1.390625 -1.640625l0.5625 0.328125q-1.375 2.21875 -2.6875 3.125q-1.0 0.703125 -1.96875 0.703125q-1.0 0 -1.671875 -0.4375q-0.65625 -0.453125 -1.171875 -1.453125q-0.515625 -1.015625 -1.21875 -3.234375q-1.828125 2.328125 -2.875 3.40625q-1.03125 1.0625 -1.71875 1.390625q-0.6875 0.328125 -1.46875 0.328125q-0.8125 0 -1.28125 -0.46875q-0.484375 -0.46875 -0.484375 -1.21875q0 -0.796875 0.515625 -1.3125q0.515625 -0.515625 1.3125 -0.515625q0.421875 0 0.953125 0.25q0.78125 0.375 1.125 0.375q0.453125 0 0.8125 -0.1875q0.46875 -0.234375 1.1875 -1.015625q0.4375 -0.484375 1.609375 -2.0625q-1.5 -5.5625 -2.34375 -6.65625q-0.53125 -0.703125 -1.34375 -0.703125q-0.421875 0 -1.03125 0.125l0.109375 -0.59375z" fill-rule="nonzero"/><path fill="#000000" d="m672.0219 428.3519l-0.640625 2.078125l-8.09375 0l0.640625 -2.078125l8.09375 0zm13.59375 -5.78125l2.328125 0l-2.8125 9.546875q-0.328125 1.09375 -0.328125 1.671875q0 0.6875 0.453125 1.1875q0.46875 0.5 1.203125 0.5q1.25 0 2.796875 -1.546875q1.5625 -1.546875 2.21875 -3.78125l2.25 -7.578125l2.3125 0l-2.796875 9.5q-0.359375 1.234375 -0.359375 1.9375q0 1.234375 1.046875 1.234375q1.140625 0 1.796875 -2.125l0.5625 0q-0.90625 3.59375 -3.28125 3.59375q-1.03125 0 -1.671875 -0.75q-0.625 -0.75 -0.625 -1.9375q0 -0.296875 0.0625 -0.859375q-3.0 3.546875 -5.28125 3.546875q-1.765625 0 -2.40625 -1.5625q-0.84375 3.328125 -1.046875 5.671875q-0.140625 1.46875 -0.40625 1.9375q-0.25 0.484375 -1.015625 0.484375q-0.609375 0 -0.90625 -0.390625q-0.296875 -0.375 -0.296875 -0.84375q0 -0.609375 0.75 -2.1875q0.921875 -1.890625 1.375 -3.453125l4.078125 -13.796875zm16.203125 -8.15625l0.53125 -0.296875q1.859375 3.53125 2.65625 6.25q0.640625 2.125 0.640625 4.28125q0 5.046875 -2.328125 9.015625q-2.875 4.890625 -9.265625 9.515625l-0.375 -0.484375q2.890625 -2.15625 4.71875 -4.796875q2.28125 -3.3125 3.734375 -8.0q1.453125 -4.703125 1.453125 -8.546875q0 -2.9375 -1.765625 -6.9375zm26.203125 -0.296875l-11.90625 22.703125l-1.375 0l11.984375 -22.703125l1.296875 0zm21.5625 8.453125l-0.625 2.203125l-5.078125 0q2.203125 1.828125 2.203125 4.09375q0 2.96875 -2.3125 5.40625q-2.296875 2.4375 -5.515625 2.4375q-2.25 0 -3.484375 -1.234375q-1.21875 -1.25 -1.21875 -3.359375q0 -2.0 0.9375 -4.171875q0.9375 -2.171875 2.5625 -3.40625q1.625 -1.25 3.390625 -1.609375q1.765625 -0.359375 5.484375 -0.359375l3.65625 0zm-6.46875 2.203125q-3.9375 0.03125 -5.5625 2.828125q-1.609375 2.796875 -1.609375 5.640625q0 2.75 2.375 2.75q2.28125 0 3.84375 -3.03125q1.578125 -3.03125 1.578125 -5.6875q0 -1.59375 -0.625 -2.5z" fill-rule="nonzero"/><path fill="#000000" fill-opacity="0.0" d="m688.1391 395.28873l0 -61.19687" fill-rule="evenodd"/><path stroke="#595959" stroke-width="3.0" stroke-linejoin="round" stroke-linecap="butt" d="m688.1391 395.28873l0 -43.19687" fill-rule="evenodd"/><path fill="#595959" stroke="#595959" stroke-width="3.0" stroke-linecap="butt" d="m693.0943 352.09186l-4.9552 -13.614288l-4.9552 13.614288z" fill-rule="evenodd"/><path fill="#ffffff" d="m688.1391 455.85565l49.385864 0l0 58.173218l-49.385864 0z" fill-rule="evenodd"/><path fill="#000000" d="m706.28516 482.91537l5.453125 -0.9375q1.484375 2.328125 2.09375 5.125q1.53125 -2.265625 2.3125 -3.171875q1.046875 -1.21875 1.71875 -1.578125q0.6875 -0.375 1.453125 -0.375q0.859375 0 1.3125 0.46875q0.46875 0.46875 0.46875 1.265625q0 0.75 -0.46875 1.234375q-0.453125 0.46875 -1.140625 0.46875q-0.5 0 -1.15625 -0.171875q-0.640625 -0.1875 -0.890625 -0.1875q-0.65625 0 -1.25 0.46875q-0.8125 0.640625 -2.0 2.734375q1.328125 4.6875 2.125 5.71875q0.46875 0.609375 0.953125 0.609375q0.40625 0 0.703125 -0.203125q0.453125 -0.328125 1.390625 -1.640625l0.5625 0.328125q-1.375 2.21875 -2.6875 3.125q-1.0 0.703125 -1.96875 0.703125q-1.0 0 -1.671875 -0.4375q-0.65625 -0.453125 -1.171875 -1.453125q-0.515625 -1.015625 -1.21875 -3.234375q-1.828125 2.328125 -2.875 3.40625q-1.03125 1.0625 -1.71875 1.390625q-0.6875 0.328125 -1.46875 0.328125q-0.8125 0 -1.28125 -0.46875q-0.484375 -0.46875 -0.484375 -1.21875q0 -0.796875 0.515625 -1.3125q0.515625 -0.515625 1.3125 -0.515625q0.421875 0 0.953125 0.25q0.78125 0.375 1.125 0.375q0.453125 0 0.8125 -0.1875q0.46875 -0.234375 1.1875 -1.015625q0.4375 -0.484375 1.609375 -2.0625q-1.5 -5.5625 -2.34375 -6.65625q-0.53125 -0.703125 -1.34375 -0.703125q-0.421875 0 -1.03125 0.125l0.109375 -0.59375z" fill-rule="nonzero"/><path fill="#000000" fill-opacity="0.0" d="m688.1391 515.5407l0 -61.19687" fill-rule="evenodd"/><path stroke="#595959" stroke-width="3.0" stroke-linejoin="round" stroke-linecap="butt" d="m688.1391 515.5407l0 -43.19687" fill-rule="evenodd"/><path fill="#595959" stroke="#595959" stroke-width="3.0" stroke-linecap="butt" d="m693.0943 472.34384l-4.9552 -13.614288l-4.9552 13.614288z" fill-rule="evenodd"/><path fill="#a4c2f4" d="m577.021 275.03674l222.2362 0l0 59.055115l-222.2362 0z" fill-rule="evenodd"/><path fill="#000000" d="m643.28754 316.5687l1.4375 -18.125q0.0625 -0.796875 0.0625 -1.3125q0 -0.828125 -0.390625 -1.21875q-0.375 -0.390625 -1.34375 -0.4375l0.234375 -0.578125l8.5625 0l-0.171875 0.578125l-0.421875 0q-0.84375 0 -1.375 0.5625q-0.515625 0.546875 -0.625 2.0625l-0.828125 10.75l6.390625 -8.734375l0.15625 -2.015625q0.0625 -0.625 0.0625 -1.0q0 -0.765625 -0.421875 -1.171875q-0.40625 -0.40625 -1.359375 -0.453125l0.15625 -0.578125l8.625 0l-0.171875 0.578125q-1.140625 0 -1.6875 0.5625q-0.546875 0.546875 -0.671875 2.0625l-0.8125 10.75l6.15625 -8.46875q1.578125 -2.171875 1.953125 -2.953125q0.265625 -0.53125 0.265625 -0.90625q0 -0.359375 -0.359375 -0.640625q-0.34375 -0.296875 -1.34375 -0.40625l0.15625 -0.578125l5.65625 0l-0.140625 0.578125q-0.765625 0.140625 -1.265625 0.53125q-0.703125 0.546875 -1.828125 2.09375l-13.453125 18.46875l-0.921875 0l1.078125 -14.296875l-10.421875 14.296875l-0.9375 0zm25.734375 -14.03125l5.453125 -0.9375q1.484375 2.328125 2.09375 5.125q1.53125 -2.265625 2.3125 -3.171875q1.046875 -1.21875 1.71875 -1.578125q0.6875 -0.375 1.453125 -0.375q0.859375 0 1.3125 0.46875q0.46875 0.46875 0.46875 1.265625q0 0.75 -0.46875 1.234375q-0.453125 0.46875 -1.140625 0.46875q-0.5 0 -1.15625 -0.171875q-0.640625 -0.1875 -0.890625 -0.1875q-0.65625 0 -1.25 0.46875q-0.8125 0.640625 -2.0 2.734375q1.328125 4.6875 2.125 5.71875q0.46875 0.609375 0.953125 0.609375q0.40625 0 0.703125 -0.203125q0.453125 -0.328125 1.390625 -1.640625l0.5625 0.328125q-1.375 2.21875 -2.6875 3.125q-1.0 0.703125 -1.96875 0.703125q-1.0 0 -1.671875 -0.4375q-0.65625 -0.453125 -1.171875 -1.453125q-0.515625 -1.015625 -1.21875 -3.234375q-1.828125 2.328125 -2.875 3.40625q-1.03125 1.0625 -1.71875 1.390625q-0.6875 0.328125 -1.46875 0.328125q-0.8125 0 -1.28125 -0.46875q-0.484375 -0.46875 -0.484375 -1.21875q0 -0.796875 0.515625 -1.3125q0.515625 -0.515625 1.3125 -0.515625q0.421875 0 0.953125 0.25q0.78125 0.375 1.125 0.375q0.453125 0 0.8125 -0.1875q0.46875 -0.234375 1.1875 -1.015625q0.4375 -0.484375 1.609375 -2.0625q-1.5 -5.5625 -2.34375 -6.65625q-0.53125 -0.703125 -1.34375 -0.703125q-0.421875 0 -1.03125 0.125l0.109375 -0.59375zm12.84375 -4.921875l-1.59375 0l-2.09375 -3.171875l-4.59375 3.171875l-1.640625 0l4.78125 -5.3125l3.546875 0l1.59375 5.3125z" fill-rule="nonzero"/><path fill="#000000" d="m702.30316 313.8812l0 -7.796875l-7.765625 0l0 -1.28125l7.765625 0l0 -7.765625l1.28125 0l0 7.765625l7.796875 0l0 1.28125l-7.796875 0l0 7.796875l-1.28125 0zm28.09375 -20.015625l-3.078125 10.796875q1.5 -1.5625 2.609375 -2.140625q1.125 -0.578125 2.34375 -0.578125q1.71875 0 2.8125 1.140625q1.09375 1.140625 1.09375 3.09375q0 2.515625 -1.4375 5.015625q-1.4375 2.484375 -3.609375 3.875q-2.171875 1.390625 -4.28125 1.390625q-2.359375 0 -4.84375 -1.765625l4.75 -16.359375q0.546875 -1.890625 0.546875 -2.21875q0 -0.40625 -0.25 -0.609375q-0.359375 -0.28125 -1.0625 -0.28125q-0.328125 0 -1.0 0.109375l0 -0.59375l5.40625 -0.875zm-6.046875 21.0q1.5625 0.859375 2.75 0.859375q1.375 0 2.84375 -1.0q1.484375 -1.015625 2.5625 -3.40625q1.09375 -2.390625 1.09375 -4.828125q0 -1.4375 -0.71875 -2.25q-0.703125 -0.8125 -1.671875 -0.8125q-1.453125 0 -2.84375 1.171875q-1.390625 1.15625 -1.984375 3.234375l-2.03125 7.03125z" fill-rule="nonzero"/></g></svg>